<mxfile host="Electron" modified="2023-08-24T12:45:29.107Z" agent="Mozilla/5.0 (Windows NT 10.0; Win64; x64) AppleWebKit/537.36 (KHTML, like Gecko) draw.io/21.6.8 Chrome/114.0.5735.289 Electron/25.5.0 Safari/537.36" etag="8-wm4aH2rY6IyoeTyq9V" version="21.6.8" type="device">
  <diagram name="Seite-1" id="Tr20mzmjsv6FQs66gH-i">
    <mxGraphModel dx="1434" dy="884" grid="1" gridSize="10" guides="1" tooltips="1" connect="1" arrows="1" fold="1" page="1" pageScale="1" pageWidth="2336" pageHeight="1654" math="0" shadow="0">
      <root>
        <mxCell id="0" />
        <mxCell id="1" parent="0" />
        <mxCell id="kVZ_IZgOHk-NdyxDgPou-4" value="prot" style="rounded=1;whiteSpace=wrap;html=1;" vertex="1" parent="1">
          <mxGeometry x="20" y="20" width="120" height="60" as="geometry" />
        </mxCell>
        <mxCell id="kVZ_IZgOHk-NdyxDgPou-5" value="date" style="rounded=1;whiteSpace=wrap;html=1;" vertex="1" parent="1">
          <mxGeometry x="230" y="20" width="120" height="60" as="geometry" />
        </mxCell>
        <mxCell id="kVZ_IZgOHk-NdyxDgPou-6" value="period" style="rounded=1;whiteSpace=wrap;html=1;" vertex="1" parent="1">
          <mxGeometry x="1040" y="20" width="120" height="60" as="geometry" />
        </mxCell>
        <mxCell id="kVZ_IZgOHk-NdyxDgPou-7" value="nr" style="rounded=1;whiteSpace=wrap;html=1;" vertex="1" parent="1">
          <mxGeometry x="840" y="20" width="120" height="60" as="geometry" />
        </mxCell>
        <mxCell id="kVZ_IZgOHk-NdyxDgPou-8" value="daytopics" style="rounded=1;whiteSpace=wrap;html=1;" vertex="1" parent="1">
          <mxGeometry x="20" y="180" width="120" height="60" as="geometry" />
        </mxCell>
        <mxCell id="kVZ_IZgOHk-NdyxDgPou-9" value="end" style="rounded=1;whiteSpace=wrap;html=1;" vertex="1" parent="1">
          <mxGeometry x="630" y="20" width="120" height="60" as="geometry" />
        </mxCell>
        <mxCell id="kVZ_IZgOHk-NdyxDgPou-10" value="begin" style="rounded=1;whiteSpace=wrap;html=1;" vertex="1" parent="1">
          <mxGeometry x="430" y="20" width="120" height="60" as="geometry" />
        </mxCell>
        <mxCell id="kVZ_IZgOHk-NdyxDgPou-11" value="" style="endArrow=classic;html=1;rounded=0;exitX=1;exitY=0.5;exitDx=0;exitDy=0;entryX=0;entryY=0.5;entryDx=0;entryDy=0;" edge="1" parent="1" source="kVZ_IZgOHk-NdyxDgPou-4" target="kVZ_IZgOHk-NdyxDgPou-5">
          <mxGeometry width="50" height="50" relative="1" as="geometry">
            <mxPoint x="560" y="480" as="sourcePoint" />
            <mxPoint x="610" y="430" as="targetPoint" />
          </mxGeometry>
        </mxCell>
        <mxCell id="kVZ_IZgOHk-NdyxDgPou-12" value="" style="endArrow=classic;html=1;rounded=0;exitX=0.5;exitY=1;exitDx=0;exitDy=0;entryX=0;entryY=0.5;entryDx=0;entryDy=0;" edge="1" parent="1" source="kVZ_IZgOHk-NdyxDgPou-4" target="kVZ_IZgOHk-NdyxDgPou-10">
          <mxGeometry width="50" height="50" relative="1" as="geometry">
            <mxPoint x="560" y="480" as="sourcePoint" />
            <mxPoint x="610" y="430" as="targetPoint" />
            <Array as="points">
              <mxPoint x="350" y="90" />
            </Array>
          </mxGeometry>
        </mxCell>
        <mxCell id="kVZ_IZgOHk-NdyxDgPou-13" value="" style="endArrow=classic;html=1;rounded=0;exitX=0.5;exitY=1;exitDx=0;exitDy=0;entryX=0;entryY=0.5;entryDx=0;entryDy=0;" edge="1" parent="1" source="kVZ_IZgOHk-NdyxDgPou-4" target="kVZ_IZgOHk-NdyxDgPou-9">
          <mxGeometry width="50" height="50" relative="1" as="geometry">
            <mxPoint x="560" y="480" as="sourcePoint" />
            <mxPoint x="610" y="430" as="targetPoint" />
            <Array as="points">
              <mxPoint x="550" y="110" />
            </Array>
          </mxGeometry>
        </mxCell>
        <mxCell id="kVZ_IZgOHk-NdyxDgPou-14" value="" style="endArrow=classic;html=1;rounded=0;exitX=0.5;exitY=1;exitDx=0;exitDy=0;entryX=0;entryY=0.5;entryDx=0;entryDy=0;" edge="1" parent="1" source="kVZ_IZgOHk-NdyxDgPou-4" target="kVZ_IZgOHk-NdyxDgPou-7">
          <mxGeometry width="50" height="50" relative="1" as="geometry">
            <mxPoint x="560" y="480" as="sourcePoint" />
            <mxPoint x="610" y="430" as="targetPoint" />
            <Array as="points">
              <mxPoint x="710" y="130" />
            </Array>
          </mxGeometry>
        </mxCell>
        <mxCell id="kVZ_IZgOHk-NdyxDgPou-15" value="" style="endArrow=classic;html=1;rounded=0;exitX=0.5;exitY=1;exitDx=0;exitDy=0;entryX=0;entryY=0.5;entryDx=0;entryDy=0;" edge="1" parent="1" source="kVZ_IZgOHk-NdyxDgPou-4" target="kVZ_IZgOHk-NdyxDgPou-6">
          <mxGeometry width="50" height="50" relative="1" as="geometry">
            <mxPoint x="560" y="480" as="sourcePoint" />
            <mxPoint x="610" y="430" as="targetPoint" />
            <Array as="points">
              <mxPoint x="950" y="160" />
            </Array>
          </mxGeometry>
        </mxCell>
        <mxCell id="kVZ_IZgOHk-NdyxDgPou-16" value="" style="endArrow=classic;html=1;rounded=0;exitX=0.5;exitY=1;exitDx=0;exitDy=0;entryX=0.5;entryY=0;entryDx=0;entryDy=0;" edge="1" parent="1" source="kVZ_IZgOHk-NdyxDgPou-4" target="kVZ_IZgOHk-NdyxDgPou-8">
          <mxGeometry width="50" height="50" relative="1" as="geometry">
            <mxPoint x="560" y="480" as="sourcePoint" />
            <mxPoint x="610" y="430" as="targetPoint" />
          </mxGeometry>
        </mxCell>
        <mxCell id="kVZ_IZgOHk-NdyxDgPou-17" value="speeches" style="rounded=1;whiteSpace=wrap;html=1;" vertex="1" parent="1">
          <mxGeometry x="230" y="320" width="120" height="60" as="geometry" />
        </mxCell>
        <mxCell id="kVZ_IZgOHk-NdyxDgPou-18" value="nr" style="rounded=1;whiteSpace=wrap;html=1;" vertex="1" parent="1">
          <mxGeometry x="430" y="180" width="120" height="60" as="geometry" />
        </mxCell>
        <mxCell id="kVZ_IZgOHk-NdyxDgPou-19" value="daytopic" style="rounded=1;whiteSpace=wrap;html=1;" vertex="1" parent="1">
          <mxGeometry x="230" y="180" width="120" height="60" as="geometry" />
        </mxCell>
        <mxCell id="kVZ_IZgOHk-NdyxDgPou-20" value="" style="endArrow=classic;html=1;rounded=0;exitX=1;exitY=0.5;exitDx=0;exitDy=0;entryX=0;entryY=0.5;entryDx=0;entryDy=0;" edge="1" parent="1" source="kVZ_IZgOHk-NdyxDgPou-8" target="kVZ_IZgOHk-NdyxDgPou-19">
          <mxGeometry width="50" height="50" relative="1" as="geometry">
            <mxPoint x="560" y="480" as="sourcePoint" />
            <mxPoint x="610" y="430" as="targetPoint" />
          </mxGeometry>
        </mxCell>
        <mxCell id="kVZ_IZgOHk-NdyxDgPou-21" value="" style="endArrow=classic;html=1;rounded=0;exitX=1;exitY=0.5;exitDx=0;exitDy=0;entryX=0;entryY=0.5;entryDx=0;entryDy=0;" edge="1" parent="1" source="kVZ_IZgOHk-NdyxDgPou-19" target="kVZ_IZgOHk-NdyxDgPou-18">
          <mxGeometry width="50" height="50" relative="1" as="geometry">
            <mxPoint x="560" y="480" as="sourcePoint" />
            <mxPoint x="610" y="430" as="targetPoint" />
          </mxGeometry>
        </mxCell>
        <mxCell id="kVZ_IZgOHk-NdyxDgPou-22" value="speech" style="rounded=1;whiteSpace=wrap;html=1;" vertex="1" parent="1">
          <mxGeometry x="430" y="320" width="120" height="60" as="geometry" />
        </mxCell>
        <mxCell id="kVZ_IZgOHk-NdyxDgPou-23" value="" style="endArrow=classic;html=1;rounded=0;exitX=0.5;exitY=1;exitDx=0;exitDy=0;entryX=0.5;entryY=0;entryDx=0;entryDy=0;" edge="1" parent="1" source="kVZ_IZgOHk-NdyxDgPou-19" target="kVZ_IZgOHk-NdyxDgPou-17">
          <mxGeometry width="50" height="50" relative="1" as="geometry">
            <mxPoint x="560" y="480" as="sourcePoint" />
            <mxPoint x="610" y="430" as="targetPoint" />
          </mxGeometry>
        </mxCell>
        <mxCell id="kVZ_IZgOHk-NdyxDgPou-24" value="" style="endArrow=classic;html=1;rounded=0;exitX=1;exitY=0.5;exitDx=0;exitDy=0;entryX=0;entryY=0.5;entryDx=0;entryDy=0;" edge="1" parent="1" source="kVZ_IZgOHk-NdyxDgPou-17" target="kVZ_IZgOHk-NdyxDgPou-22">
          <mxGeometry width="50" height="50" relative="1" as="geometry">
            <mxPoint x="560" y="480" as="sourcePoint" />
            <mxPoint x="610" y="430" as="targetPoint" />
          </mxGeometry>
        </mxCell>
        <mxCell id="kVZ_IZgOHk-NdyxDgPou-25" value="id" style="rounded=1;whiteSpace=wrap;html=1;" vertex="1" parent="1">
          <mxGeometry x="630" y="320" width="120" height="60" as="geometry" />
        </mxCell>
        <mxCell id="kVZ_IZgOHk-NdyxDgPou-26" value="content" style="rounded=1;whiteSpace=wrap;html=1;" vertex="1" parent="1">
          <mxGeometry x="820" y="320" width="120" height="60" as="geometry" />
        </mxCell>
        <mxCell id="kVZ_IZgOHk-NdyxDgPou-27" value="speaker" style="rounded=1;whiteSpace=wrap;html=1;" vertex="1" parent="1">
          <mxGeometry x="430" y="450" width="120" height="60" as="geometry" />
        </mxCell>
        <mxCell id="kVZ_IZgOHk-NdyxDgPou-28" value="id" style="rounded=1;whiteSpace=wrap;html=1;" vertex="1" parent="1">
          <mxGeometry x="630" y="450" width="120" height="60" as="geometry" />
        </mxCell>
        <mxCell id="kVZ_IZgOHk-NdyxDgPou-29" value="" style="endArrow=classic;html=1;rounded=0;exitX=1;exitY=0.5;exitDx=0;exitDy=0;entryX=0;entryY=0.5;entryDx=0;entryDy=0;" edge="1" parent="1" source="kVZ_IZgOHk-NdyxDgPou-22" target="kVZ_IZgOHk-NdyxDgPou-25">
          <mxGeometry width="50" height="50" relative="1" as="geometry">
            <mxPoint x="940" y="510" as="sourcePoint" />
            <mxPoint x="990" y="460" as="targetPoint" />
          </mxGeometry>
        </mxCell>
        <mxCell id="kVZ_IZgOHk-NdyxDgPou-30" value="" style="endArrow=classic;html=1;rounded=0;entryX=0;entryY=0.5;entryDx=0;entryDy=0;exitX=0.5;exitY=1;exitDx=0;exitDy=0;" edge="1" parent="1" source="kVZ_IZgOHk-NdyxDgPou-22" target="kVZ_IZgOHk-NdyxDgPou-26">
          <mxGeometry width="50" height="50" relative="1" as="geometry">
            <mxPoint x="590" y="410" as="sourcePoint" />
            <mxPoint x="990" y="460" as="targetPoint" />
            <Array as="points">
              <mxPoint x="760" y="410" />
            </Array>
          </mxGeometry>
        </mxCell>
        <mxCell id="kVZ_IZgOHk-NdyxDgPou-34" value="" style="endArrow=classic;html=1;rounded=0;exitX=0.5;exitY=1;exitDx=0;exitDy=0;entryX=0.5;entryY=0;entryDx=0;entryDy=0;" edge="1" parent="1" source="kVZ_IZgOHk-NdyxDgPou-22" target="kVZ_IZgOHk-NdyxDgPou-27">
          <mxGeometry width="50" height="50" relative="1" as="geometry">
            <mxPoint x="750" y="560" as="sourcePoint" />
            <mxPoint x="800" y="510" as="targetPoint" />
          </mxGeometry>
        </mxCell>
        <mxCell id="kVZ_IZgOHk-NdyxDgPou-35" value="firstname" style="rounded=1;whiteSpace=wrap;html=1;" vertex="1" parent="1">
          <mxGeometry x="820" y="450" width="120" height="60" as="geometry" />
        </mxCell>
        <mxCell id="kVZ_IZgOHk-NdyxDgPou-36" value="lastname" style="rounded=1;whiteSpace=wrap;html=1;" vertex="1" parent="1">
          <mxGeometry x="1010" y="450" width="120" height="60" as="geometry" />
        </mxCell>
        <mxCell id="kVZ_IZgOHk-NdyxDgPou-37" value="title" style="rounded=1;whiteSpace=wrap;html=1;" vertex="1" parent="1">
          <mxGeometry x="1180" y="450" width="120" height="60" as="geometry" />
        </mxCell>
        <mxCell id="kVZ_IZgOHk-NdyxDgPou-38" value="bday" style="rounded=1;whiteSpace=wrap;html=1;" vertex="1" parent="1">
          <mxGeometry x="1340" y="450" width="120" height="60" as="geometry" />
        </mxCell>
        <mxCell id="kVZ_IZgOHk-NdyxDgPou-39" value="religion" style="rounded=1;whiteSpace=wrap;html=1;" vertex="1" parent="1">
          <mxGeometry x="1510" y="450" width="120" height="60" as="geometry" />
        </mxCell>
        <mxCell id="kVZ_IZgOHk-NdyxDgPou-40" value="jobs" style="rounded=1;whiteSpace=wrap;html=1;" vertex="1" parent="1">
          <mxGeometry x="1680" y="450" width="120" height="60" as="geometry" />
        </mxCell>
        <mxCell id="kVZ_IZgOHk-NdyxDgPou-41" value="party" style="rounded=1;whiteSpace=wrap;html=1;" vertex="1" parent="1">
          <mxGeometry x="430" y="600" width="120" height="60" as="geometry" />
        </mxCell>
        <mxCell id="kVZ_IZgOHk-NdyxDgPou-43" value="" style="endArrow=classic;html=1;rounded=0;exitX=0.5;exitY=1;exitDx=0;exitDy=0;entryX=0;entryY=0.5;entryDx=0;entryDy=0;" edge="1" parent="1" source="kVZ_IZgOHk-NdyxDgPou-27" target="kVZ_IZgOHk-NdyxDgPou-35">
          <mxGeometry width="50" height="50" relative="1" as="geometry">
            <mxPoint x="990" y="570" as="sourcePoint" />
            <mxPoint x="1040" y="520" as="targetPoint" />
            <Array as="points">
              <mxPoint x="780" y="520" />
            </Array>
          </mxGeometry>
        </mxCell>
        <mxCell id="kVZ_IZgOHk-NdyxDgPou-44" value="" style="endArrow=classic;html=1;rounded=0;exitX=0.5;exitY=1;exitDx=0;exitDy=0;entryX=0;entryY=0.5;entryDx=0;entryDy=0;" edge="1" parent="1" source="kVZ_IZgOHk-NdyxDgPou-27" target="kVZ_IZgOHk-NdyxDgPou-36">
          <mxGeometry width="50" height="50" relative="1" as="geometry">
            <mxPoint x="990" y="570" as="sourcePoint" />
            <mxPoint x="1040" y="520" as="targetPoint" />
            <Array as="points">
              <mxPoint x="930" y="540" />
            </Array>
          </mxGeometry>
        </mxCell>
        <mxCell id="kVZ_IZgOHk-NdyxDgPou-45" value="" style="endArrow=classic;html=1;rounded=0;exitX=0.5;exitY=1;exitDx=0;exitDy=0;entryX=0;entryY=0.5;entryDx=0;entryDy=0;" edge="1" parent="1" source="kVZ_IZgOHk-NdyxDgPou-27" target="kVZ_IZgOHk-NdyxDgPou-37">
          <mxGeometry width="50" height="50" relative="1" as="geometry">
            <mxPoint x="990" y="570" as="sourcePoint" />
            <mxPoint x="1040" y="520" as="targetPoint" />
            <Array as="points">
              <mxPoint x="1120" y="570" />
            </Array>
          </mxGeometry>
        </mxCell>
        <mxCell id="kVZ_IZgOHk-NdyxDgPou-46" value="" style="endArrow=classic;html=1;rounded=0;exitX=1;exitY=0.5;exitDx=0;exitDy=0;entryX=0;entryY=0.5;entryDx=0;entryDy=0;" edge="1" parent="1" source="kVZ_IZgOHk-NdyxDgPou-27" target="kVZ_IZgOHk-NdyxDgPou-28">
          <mxGeometry width="50" height="50" relative="1" as="geometry">
            <mxPoint x="990" y="570" as="sourcePoint" />
            <mxPoint x="1040" y="520" as="targetPoint" />
          </mxGeometry>
        </mxCell>
        <mxCell id="kVZ_IZgOHk-NdyxDgPou-47" value="" style="endArrow=classic;html=1;rounded=0;exitX=0.5;exitY=1;exitDx=0;exitDy=0;entryX=0;entryY=0.5;entryDx=0;entryDy=0;" edge="1" parent="1" source="kVZ_IZgOHk-NdyxDgPou-27" target="kVZ_IZgOHk-NdyxDgPou-38">
          <mxGeometry width="50" height="50" relative="1" as="geometry">
            <mxPoint x="1060" y="490" as="sourcePoint" />
            <mxPoint x="1110" y="440" as="targetPoint" />
            <Array as="points">
              <mxPoint x="1300" y="600" />
            </Array>
          </mxGeometry>
        </mxCell>
        <mxCell id="kVZ_IZgOHk-NdyxDgPou-48" value="" style="endArrow=classic;html=1;rounded=0;exitX=0.5;exitY=1;exitDx=0;exitDy=0;entryX=0;entryY=0.5;entryDx=0;entryDy=0;" edge="1" parent="1" source="kVZ_IZgOHk-NdyxDgPou-27" target="kVZ_IZgOHk-NdyxDgPou-39">
          <mxGeometry width="50" height="50" relative="1" as="geometry">
            <mxPoint x="1060" y="490" as="sourcePoint" />
            <mxPoint x="1110" y="440" as="targetPoint" />
            <Array as="points">
              <mxPoint x="1440" y="630" />
            </Array>
          </mxGeometry>
        </mxCell>
        <mxCell id="kVZ_IZgOHk-NdyxDgPou-49" value="" style="endArrow=classic;html=1;rounded=0;exitX=0.5;exitY=1;exitDx=0;exitDy=0;entryX=0;entryY=0.5;entryDx=0;entryDy=0;" edge="1" parent="1" source="kVZ_IZgOHk-NdyxDgPou-27" target="kVZ_IZgOHk-NdyxDgPou-40">
          <mxGeometry width="50" height="50" relative="1" as="geometry">
            <mxPoint x="1060" y="490" as="sourcePoint" />
            <mxPoint x="1110" y="440" as="targetPoint" />
            <Array as="points">
              <mxPoint x="1560" y="660" />
            </Array>
          </mxGeometry>
        </mxCell>
        <mxCell id="kVZ_IZgOHk-NdyxDgPou-51" value="name" style="rounded=1;whiteSpace=wrap;html=1;" vertex="1" parent="1">
          <mxGeometry x="630" y="600" width="120" height="60" as="geometry" />
        </mxCell>
        <mxCell id="kVZ_IZgOHk-NdyxDgPou-52" value="id" style="rounded=1;whiteSpace=wrap;html=1;" vertex="1" parent="1">
          <mxGeometry x="820" y="600" width="120" height="60" as="geometry" />
        </mxCell>
        <mxCell id="kVZ_IZgOHk-NdyxDgPou-53" value="" style="endArrow=classic;html=1;rounded=0;exitX=0.5;exitY=1;exitDx=0;exitDy=0;entryX=0.5;entryY=0;entryDx=0;entryDy=0;" edge="1" parent="1" source="kVZ_IZgOHk-NdyxDgPou-27" target="kVZ_IZgOHk-NdyxDgPou-41">
          <mxGeometry width="50" height="50" relative="1" as="geometry">
            <mxPoint x="890" y="690" as="sourcePoint" />
            <mxPoint x="940" y="640" as="targetPoint" />
          </mxGeometry>
        </mxCell>
        <mxCell id="kVZ_IZgOHk-NdyxDgPou-54" value="" style="endArrow=classic;html=1;rounded=0;exitX=1;exitY=0.5;exitDx=0;exitDy=0;entryX=0;entryY=0.5;entryDx=0;entryDy=0;" edge="1" parent="1" source="kVZ_IZgOHk-NdyxDgPou-41" target="kVZ_IZgOHk-NdyxDgPou-51">
          <mxGeometry width="50" height="50" relative="1" as="geometry">
            <mxPoint x="890" y="690" as="sourcePoint" />
            <mxPoint x="940" y="640" as="targetPoint" />
          </mxGeometry>
        </mxCell>
        <mxCell id="kVZ_IZgOHk-NdyxDgPou-55" value="" style="endArrow=classic;html=1;rounded=0;exitX=0.5;exitY=1;exitDx=0;exitDy=0;entryX=0;entryY=0.5;entryDx=0;entryDy=0;" edge="1" parent="1" source="kVZ_IZgOHk-NdyxDgPou-41" target="kVZ_IZgOHk-NdyxDgPou-52">
          <mxGeometry width="50" height="50" relative="1" as="geometry">
            <mxPoint x="890" y="690" as="sourcePoint" />
            <mxPoint x="940" y="640" as="targetPoint" />
            <Array as="points">
              <mxPoint x="740" y="690" />
            </Array>
          </mxGeometry>
        </mxCell>
        <mxCell id="kVZ_IZgOHk-NdyxDgPou-56" value="comments" style="rounded=1;whiteSpace=wrap;html=1;" vertex="1" parent="1">
          <mxGeometry x="430" y="740" width="120" height="60" as="geometry" />
        </mxCell>
        <mxCell id="kVZ_IZgOHk-NdyxDgPou-57" value="" style="endArrow=classic;html=1;rounded=0;exitX=0.5;exitY=1;exitDx=0;exitDy=0;entryX=0.5;entryY=0;entryDx=0;entryDy=0;" edge="1" parent="1" source="kVZ_IZgOHk-NdyxDgPou-22" target="kVZ_IZgOHk-NdyxDgPou-56">
          <mxGeometry width="50" height="50" relative="1" as="geometry">
            <mxPoint x="840" y="640" as="sourcePoint" />
            <mxPoint x="890" y="590" as="targetPoint" />
            <Array as="points">
              <mxPoint x="300" y="570" />
            </Array>
          </mxGeometry>
        </mxCell>
        <mxCell id="kVZ_IZgOHk-NdyxDgPou-58" value="comment" style="rounded=1;whiteSpace=wrap;html=1;" vertex="1" parent="1">
          <mxGeometry x="630" y="740" width="120" height="60" as="geometry" />
        </mxCell>
        <mxCell id="kVZ_IZgOHk-NdyxDgPou-59" value="content" style="rounded=1;whiteSpace=wrap;html=1;" vertex="1" parent="1">
          <mxGeometry x="820" y="740" width="120" height="60" as="geometry" />
        </mxCell>
        <mxCell id="kVZ_IZgOHk-NdyxDgPou-60" value="" style="endArrow=classic;html=1;rounded=0;exitX=1;exitY=0.5;exitDx=0;exitDy=0;entryX=0;entryY=0.5;entryDx=0;entryDy=0;" edge="1" parent="1" source="kVZ_IZgOHk-NdyxDgPou-56" target="kVZ_IZgOHk-NdyxDgPou-58">
          <mxGeometry width="50" height="50" relative="1" as="geometry">
            <mxPoint x="840" y="640" as="sourcePoint" />
            <mxPoint x="890" y="590" as="targetPoint" />
          </mxGeometry>
        </mxCell>
        <mxCell id="kVZ_IZgOHk-NdyxDgPou-61" value="" style="endArrow=classic;html=1;rounded=0;exitX=1;exitY=0.5;exitDx=0;exitDy=0;entryX=0;entryY=0.5;entryDx=0;entryDy=0;" edge="1" parent="1" source="kVZ_IZgOHk-NdyxDgPou-58" target="kVZ_IZgOHk-NdyxDgPou-59">
          <mxGeometry width="50" height="50" relative="1" as="geometry">
            <mxPoint x="840" y="640" as="sourcePoint" />
            <mxPoint x="890" y="590" as="targetPoint" />
          </mxGeometry>
        </mxCell>
      </root>
    </mxGraphModel>
  </diagram>
</mxfile>
